Coordinates
version=1
nRows=14
nColumns=36
inDegrees=yes

Units are S.I. units (second, meters, Newtons, ...)
If the header above contains a line with 'inDegrees', this indicates whether rotational values are in degrees (yes) or radians (no).

endheader
time	pelvis_tilt	pelvis_list	pelvis_rotation	pelvis_tx	pelvis_ty	pelvis_tz	hip_flexion_r	hip_adduction_r	hip_rotation_r	knee_angle_r	knee_angle_r_beta	ankle_angle_r	subtalar_angle_r	mtp_angle_r	hip_flexion_l	hip_adduction_l	hip_rotation_l	knee_angle_l	knee_angle_l_beta	ankle_angle_l	subtalar_angle_l	mtp_angle_l	lumbar_extension	lumbar_bending	lumbar_rotation	arm_flex_r	arm_add_r	arm_rot_r	elbow_flex_r	pro_sup_r	arm_flex_l	arm_add_l	arm_rot_l	elbow_flex_l	pro_sup_l
      2.33750000	    -25.05159559	      1.46365676	      0.58770507	      0.13602297	      0.59349234	     -0.03501330	     95.30350756	     -7.80045963	      6.67847521	    101.38300469	      1.76946724	     28.72121105	    -23.09277250	     -7.49999987	     88.23526690	     -5.05131886	      8.03387009	    104.24878097	      1.81948447	     35.59071704	    -13.05527199	     -7.49999987	    -47.31896026	     -2.48749915	     -0.26168065	     65.98167555	    -18.27512247	     15.52201425	     64.77435790	     95.45408589	     57.99028424	    -11.04736684	     11.49953846	     97.82448030	     65.54987957
      2.34166670	    -24.96465918	      1.54459250	      0.89300341	      0.13536622	      0.59707682	     -0.03505677	     94.76361511	     -7.80406524	      6.88112083	    101.03787549	      1.76344360	     28.72429427	    -23.76883864	     -7.49999987	     87.65501379	     -4.82980574	      7.70462392	    103.73949534	      1.81059576	     35.87371587	    -13.11923572	     -7.49999987	    -47.22341972	     -2.41934709	     -0.27763411	     65.59817427	    -18.75542471	     15.41164233	     64.97918506	     94.04171656	     57.82114502	    -10.97367619	     11.69217108	     97.46453449	     65.22982403
      2.34583330	    -25.10764330	      1.56012340	      1.01125026	      0.13623314	      0.59737847	     -0.03481685	     94.61147290	     -7.51435349	      7.04340602	    100.83421907	      1.75988912	     28.62660322	    -24.57138374	     -7.49999987	     87.61126698	     -4.75761287	      7.55764424	    103.53533640	      1.80703251	     36.08314996	    -13.02956643	     -7.49999987	    -46.88926635	     -2.32592705	     -0.47344744	     65.19626507	    -18.86344164	     15.46580741	     65.55843596	     94.07889868	     57.45489836	    -11.53049403	     11.66643213	     97.83670523	     65.28247178
      2.35000000	    -25.19332619	      1.50612740	      1.25481601	      0.13603960	      0.60316337	     -0.03669012	     94.22776721	     -7.59557801	      7.06949079	    100.35217219	      1.75147582	     28.29792626	    -24.72980649	     -7.49999987	     87.37087139	     -4.25611733	      7.44717709	    102.90769821	      1.79607816	     35.94536088	    -13.43570256	     -7.49999987	    -46.87265189	     -2.08441788	     -0.67783160	     64.93715974	    -19.12955539	     15.20432710	     66.65169481	     93.51920860	     57.57079659	    -11.96784272	     11.03970649	     98.36452272	     65.18790809
      2.35416670	    -25.10622515	      1.37380121	      1.30713567	      0.13705823	      0.60378112	     -0.03676259	     93.73857575	     -7.47779024	      6.94197855	    100.11789964	      1.74738699	     28.54131667	    -24.60984515	     -7.49999987	     86.92724131	     -4.06741640	      7.59166588	    102.30923557	      1.78563302	     35.97001274	    -13.68142464	     -7.49999987	    -46.74225004	     -2.05046181	     -0.68320060	     64.79631595	    -19.27915989	     15.08838533	     66.90550320	     92.41228772	     58.04359652	    -12.25034683	     10.56736412	     97.75197757	     64.98161459
      2.35833330	    -25.23904031	      1.10332211	      1.69735239	      0.13716131	      0.61000387	     -0.02832427	     93.16235625	     -7.18698764	      6.66635280	     99.38154095	      1.73453511	     27.85488704	    -25.53215466	     -7.49999987	     86.62485497	     -4.05708855	      7.93319875	    101.40146074	      1.76978936	     35.62558905	    -13.51582811	     -7.49999987	    -46.67634290	     -1.80288694	     -0.99004607	     64.25000580	    -19.04948172	     14.18776952	     68.54448131	     93.46968588	     58.32023978	    -12.96144704	      9.13203666	     98.47334824	     65.03696154
      2.36250000	    -25.17480232	      0.88687202	      1.69188433	      0.14235047	      0.61053732	     -0.03337775	     92.48533804	     -7.01933056	      6.49173877	     99.01887348	      1.72820536	     27.85848661	    -25.74899299	     -7.49999987	     86.11527967	     -4.02286128	      8.28836720	    101.03096167	      1.76332293	     35.55936196	    -13.49400049	     -7.49999987	    -46.52501589	     -1.69356163	     -1.16398283	     64.16448156	    -18.85209684	     13.88962944	     69.00999919	     93.76656478	     58.72352175	    -13.69341735	      8.59459117	     98.04282163	     65.01676143
      2.36666670	    -25.04063257	      0.73093629	      1.58269263	      0.14151066	      0.61378391	     -0.03349303	     91.85774293	     -6.73786569	      6.32534237	     98.51734857	      1.71945210	     27.82186347	    -25.66663740	     -7.49999987	     85.51531244	     -4.15975741	      8.37221882	    100.54606796	      1.75485994	     35.61741422	    -13.69067727	     -7.49999987	    -46.36707981	     -1.72557911	     -1.04153487	     64.18389816	    -19.00294808	     13.52843387	     69.12084048	     92.49786171	     59.47808263	    -13.90096602	      8.19810953	     97.18291114	     64.70765431
      2.37083330	    -24.77477129	      0.68610936	      1.38669216	      0.14605401	      0.61794431	     -0.03845233	     90.93207624	     -6.67122534	      6.36350211	     97.91295224	      1.70890340	     27.83369079	    -25.41679462	     -7.49999987	     84.72932970	     -4.14784798	      8.29434394	    100.10490481	      1.74716019	     35.71369690	    -13.79898795	     -7.49999987	    -46.45206719	     -1.62253698	     -1.06153506	     64.64179301	    -18.87632967	     13.05006272	     69.02698325	     92.87082163	     59.98082515	    -14.44110688	      7.88402449	     97.41547725	     64.70051230
      2.37500000	    -24.72907053	      0.67851268	      1.22107411	      0.14478645	      0.62108657	     -0.03796640	     90.42251739	     -6.63304638	      6.44447030	     97.32702670	      1.69867707	     27.67126666	    -25.35501907	     -7.49999987	     84.37864230	     -4.27319377	      8.06462933	     99.79340298	      1.74172345	     35.74022850	    -13.82661573	     -7.49999987	    -46.21166266	     -1.58328487	     -0.92952654	     65.01709704	    -19.27988151	     12.73810156	     68.96600564	     92.22872207	     60.42155196	    -14.75757724	      7.64831141	     97.09090046	     64.54108640
      2.37916670	    -24.84891203	      0.61727230	      1.29676783	      0.14226828	      0.62736413	     -0.03232663	     90.09663629	     -6.40718449	      6.40282919	     96.54003113	      1.68494140	     27.65279369	    -25.31713055	     -7.49999987	     84.07264340	     -4.33831125	      8.12525153	     98.89882063	      1.72611005	     35.42967013	    -13.71297721	     -7.49999987	    -45.82979642	     -1.49232327	     -0.90538449	     65.18792087	    -19.60763059	     12.56795832	     68.94764526	     92.28604340	     60.88395230	    -15.28463795	      7.45299747	     97.19554300	     64.54262368
      2.38333330	    -24.30023106	      0.50518594	      1.06210769	      0.15041248	      0.63517044	     -0.03314977	     88.49294992	     -5.93250483	      6.24513228	     95.49436263	      1.66669105	     27.21303449	    -26.48434300	     -7.49999987	     82.66208635	     -4.57394341	      8.37558416	     98.03518142	      1.71103670	     34.34971685	    -14.56336652	     -7.49999987	    -46.56134976	     -1.35467877	     -0.87812052	     66.00293417	    -19.69204852	     12.29340190	     69.27028047	     92.79726927	     61.64978318	    -16.50478038	      7.56553406	     97.71317726	     64.62708713
      2.38750000	    -24.39187771	      0.64632855	      0.72180640	      0.14678178	      0.63485885	     -0.03696719	     88.09914481	     -5.66924871	      6.40171209	     94.75082356	      1.65371384	     26.98295062	    -26.65508815	     -7.49999987	     82.35441741	     -4.84343671	      8.11990812	     97.55071280	      1.70258113	     34.23015047	    -14.58839558	     -7.49999987	    -46.30260831	     -1.41115821	     -0.76184715	     66.68413797	    -20.13263128	     12.36634947	     69.63603845	     93.05157508	     62.07536510	    -17.27690139	      7.18427607	     97.88423707	     64.65208220
      2.39166670	    -24.10368590	      0.59647247	      0.22460617	      0.15814475	      0.63655106	     -0.04230613	     87.00871275	     -5.56279589	      6.47009581	     94.15446221	      1.64330537	     27.09593920	    -26.79757956	     -7.49999987	     81.18518053	     -4.80775254	      8.02624697	     97.27374990	      1.69774721	     34.28134255	    -15.61776839	     -7.49999987	    -46.11372270	     -1.10858996	     -0.57167040	     67.52171057	    -20.59787393	     13.67558805	     69.53561690	     94.44637018	     61.67489553	    -18.06790099	      6.03495641	     98.16687999	     64.77824245
